<?xml version="1.0" encoding="utf-8"?>
<!-- Generator: Adobe Illustrator 18.1.0, SVG Export Plug-In . SVG Version: 6.00 Build 0)  -->
<!DOCTYPE svg PUBLIC "-//W3C//DTD SVG 1.1//EN" "http://www.w3.org/Graphics/SVG/1.1/DTD/svg11.dtd">
<svg version="1.1" id="Capa_1" xmlns="http://www.w3.org/2000/svg" xmlns:xlink="http://www.w3.org/1999/xlink" x="0px" y="0px"
	 width="22.9px" height="23.9px" viewBox="-470.9 269.5 22.9 23.9" enable-background="new -470.9 269.5 22.9 23.9"
	 xml:space="preserve">
<g>
	<path fill="#FFFFFF" d="M-454.6,273.6h-9.7c-1.4,0-2.6,1.2-2.6,2.6v6c0,1.4,1.2,2.6,2.6,2.6h0.5l-1.5,3.8c-0.1,0.2,0,0.3,0.1,0.4
		c0.1,0,0.1,0.1,0.2,0.1c0.1,0,0.2,0,0.2-0.1c0,0,4.8-4.2,4.8-4.2h5.3c1.4,0,2.6-1.2,2.6-2.6v-6
		C-451.9,274.8-453.1,273.6-454.6,273.6z M-454.7,281.3h-9.6v-1.1h9.6L-454.7,281.3C-454.7,281.3-454.7,281.3-454.7,281.3z
		 M-454.7,278.2h-9.6v-1.1h9.6L-454.7,278.2L-454.7,278.2z"/>
</g>
</svg>
