<?xml version="1.0" encoding="utf-8"?>
<!-- Generator: Adobe Illustrator 18.1.0, SVG Export Plug-In . SVG Version: 6.00 Build 0)  -->
<!DOCTYPE svg PUBLIC "-//W3C//DTD SVG 1.1//EN" "http://www.w3.org/Graphics/SVG/1.1/DTD/svg11.dtd">
<svg version="1.1" id="Capa_1" xmlns="http://www.w3.org/2000/svg" xmlns:xlink="http://www.w3.org/1999/xlink" x="0px" y="0px"
	 width="33.9px" height="33.9px" viewBox="-399.9 264 33.9 33.9" enable-background="new -399.9 264 33.9 33.9"
	 xml:space="preserve">
<g>
	<path fill="#FFF0D4" d="M-376.7,268.4l-3.2,0c-3.6,0-6,2.4-6,6.2v2.8h-3.3c-0.3,0-0.5,0.2-0.5,0.5v4.1c0,0.3,0.2,0.5,0.5,0.5h3.3
		v10.4c0,0.3,0.2,0.5,0.5,0.5h4.3c0.3,0,0.5-0.2,0.5-0.5v-10.4h3.8c0.3,0,0.5-0.2,0.5-0.5l0-4.1c0-0.1-0.1-0.3-0.1-0.4
		c-0.1-0.1-0.2-0.1-0.4-0.1h-3.8V275c0-1.2,0.3-1.7,1.8-1.7l2.2,0c0.3,0,0.5-0.2,0.5-0.5V269C-376.2,268.7-376.4,268.4-376.7,268.4z
		"/>
</g>
</svg>
