<?xml version="1.0" encoding="utf-8"?>
<!-- Generator: Adobe Illustrator 18.1.0, SVG Export Plug-In . SVG Version: 6.00 Build 0)  -->
<!DOCTYPE svg PUBLIC "-//W3C//DTD SVG 1.1//EN" "http://www.w3.org/Graphics/SVG/1.1/DTD/svg11.dtd">
<svg version="1.1" id="Layer_1" xmlns="http://www.w3.org/2000/svg" xmlns:xlink="http://www.w3.org/1999/xlink" x="0px" y="0px"
	 viewBox="0 0 446.1 105" enable-background="new 0 0 446.1 105" xml:space="preserve">
<g>
	<g>
		<path fill="#DF1F26" d="M0.4,0h23.7L55,45.5V0h23.9v82.1H55L24.2,37.1v45.1H0.4V0z"/>
		<path fill="#DF1F26" d="M83.4,41.2c0-13.4,3.7-23.8,11.2-31.3c7.5-7.5,17.9-11.2,31.2-11.2c13.7,0,24.2,3.7,31.6,11
			c7.4,7.3,11.1,17.6,11.1,30.8c0,9.6-1.6,17.5-4.8,23.6c-3.2,6.1-7.9,10.9-14,14.3s-13.7,5.1-22.8,5.1c-9.3,0-16.9-1.5-23-4.4
			c-6.1-2.9-11-7.6-14.8-14C85.3,58.7,83.4,50.7,83.4,41.2z M108.8,41.3c0,8.3,1.5,14.2,4.6,17.9c3.1,3.6,7.3,5.4,12.6,5.4
			c5.5,0,9.7-1.8,12.7-5.3c3-3.5,4.5-9.9,4.5-19.1c0-7.7-1.6-13.4-4.7-16.9c-3.1-3.6-7.3-5.3-12.7-5.3c-5.1,0-9.2,1.8-12.3,5.4
			C110.3,26.9,108.8,32.9,108.8,41.3z"/>
		<path fill="#DF1F26" d="M173.3,82.1V0h42.3c7.8,0,13.8,0.7,18,2c4.1,1.3,7.5,3.8,10,7.5c2.5,3.6,3.8,8.1,3.8,13.3
			c0,4.6-1,8.5-2.9,11.8c-1.9,3.3-4.6,6-8,8c-2.2,1.3-5.1,2.4-8.9,3.2c3,1,5.2,2,6.6,3c0.9,0.7,2.3,2.1,4.1,4.3
			c1.8,2.2,3,3.9,3.6,5.1l12.3,23.8h-28.7l-13.6-25.1c-1.7-3.2-3.2-5.4-4.6-6.3c-1.8-1.3-3.9-1.9-6.2-1.9h-2.2v33.3H173.3z
			 M198.8,33.3h10.7c1.2,0,3.4-0.4,6.7-1.1c1.7-0.3,3.1-1.2,4.1-2.6c1.1-1.4,1.6-3,1.6-4.8c0-2.7-0.8-4.7-2.5-6.1
			c-1.7-1.4-4.8-2.1-9.5-2.1h-11.1V33.3z"/>
		<path fill="#DF1F26" d="M252.7,0h33.4L299,50l12.8-50h33.3v82.1h-20.8V19.5l-16,62.6h-18.8l-16-62.6v62.6h-20.8V0z"/>
	</g>
	<g>
		<path fill="#454545" d="M349.4,0h25.4v61.9h39.6v20.2h-65V0z"/>
		<path fill="#454545" d="M418.9,0h25.4v82.1h-25.4V0z"/>
	</g>
	<g>
		<path fill="#FFF0D3" d="M0,105l5.3-13.9h2L13,105h-2.1l-1.6-4.2H3.5L1.9,105H0z M4,99.3h4.7l-1.5-3.9c-0.4-1.2-0.8-2.1-1-2.9
			c-0.2,0.9-0.4,1.8-0.8,2.7L4,99.3z"/>
		<path fill="#FFF0D3" d="M14.5,105V91.1h6.2c1.2,0,2.2,0.1,2.8,0.4s1.2,0.7,1.5,1.3c0.4,0.6,0.6,1.3,0.6,2.1c0,1-0.3,1.8-1,2.5
			s-1.6,1.1-3,1.3c0.5,0.2,0.9,0.5,1.1,0.7c0.5,0.5,1,1.1,1.5,1.9l2.4,3.8h-2.3l-1.8-2.9c-0.5-0.8-1-1.5-1.3-1.9
			c-0.3-0.4-0.7-0.8-0.9-0.9c-0.3-0.2-0.6-0.3-0.8-0.4c-0.2,0-0.6-0.1-1-0.1h-2.1v6.2H14.5z M16.3,97.2h4c0.8,0,1.5-0.1,2-0.3
			c0.5-0.2,0.8-0.5,1.1-0.8c0.2-0.4,0.4-0.8,0.4-1.2c0-0.7-0.2-1.2-0.7-1.6c-0.5-0.4-1.2-0.6-2.3-0.6h-4.4V97.2z"/>
		<path fill="#FFF0D3" d="M38.4,100.1l1.8,0.5c-0.4,1.5-1.1,2.7-2.1,3.5c-1,0.8-2.2,1.2-3.7,1.2c-1.5,0-2.7-0.3-3.7-0.9
			c-0.9-0.6-1.7-1.5-2.1-2.7c-0.5-1.2-0.7-2.4-0.7-3.7c0-1.4,0.3-2.7,0.8-3.8c0.6-1.1,1.3-1.9,2.4-2.5s2.1-0.8,3.4-0.8
			c1.4,0,2.6,0.4,3.5,1.1c0.9,0.7,1.6,1.7,2,3l-1.8,0.4c-0.3-1-0.8-1.8-1.4-2.2c-0.6-0.5-1.4-0.7-2.3-0.7c-1.1,0-2,0.3-2.7,0.8
			c-0.7,0.5-1.2,1.2-1.5,2.1c-0.3,0.9-0.4,1.8-0.4,2.7c0,1.2,0.2,2.2,0.5,3.1c0.3,0.9,0.9,1.5,1.6,2c0.7,0.4,1.5,0.7,2.4,0.7
			c1,0,1.9-0.3,2.6-0.9C37.7,102.2,38.2,101.3,38.4,100.1z"/>
		<path fill="#FFF0D3" d="M42.6,105V91.1h1.8v5.7h7.2v-5.7h1.8V105h-1.8v-6.6h-7.2v6.6H42.6z"/>
		<path fill="#FFF0D3" d="M56.9,105V91.1h1.8V105H56.9z"/>
		<path fill="#FFF0D3" d="M65.5,105V92.7h-4.6v-1.6h11v1.6h-4.6V105H65.5z"/>
		<path fill="#FFF0D3" d="M73.9,105V91.1H84v1.6h-8.2V97h7.7v1.6h-7.7v4.7h8.5v1.6H73.9z"/>
		<path fill="#FFF0D3" d="M96.8,100.1l1.8,0.5c-0.4,1.5-1.1,2.7-2.1,3.5c-1,0.8-2.2,1.2-3.7,1.2c-1.5,0-2.7-0.3-3.7-0.9
			c-0.9-0.6-1.7-1.5-2.1-2.7c-0.5-1.2-0.7-2.4-0.7-3.7c0-1.4,0.3-2.7,0.8-3.8c0.6-1.1,1.3-1.9,2.4-2.5s2.1-0.8,3.4-0.8
			c1.4,0,2.6,0.4,3.5,1.1c0.9,0.7,1.6,1.7,2,3l-1.8,0.4c-0.3-1-0.8-1.8-1.4-2.2c-0.6-0.5-1.4-0.7-2.3-0.7c-1.1,0-2,0.3-2.7,0.8
			c-0.7,0.5-1.2,1.2-1.5,2.1c-0.3,0.9-0.4,1.8-0.4,2.7c0,1.2,0.2,2.2,0.5,3.1c0.3,0.9,0.9,1.5,1.6,2c0.7,0.4,1.5,0.7,2.4,0.7
			c1,0,1.9-0.3,2.6-0.9C96,102.2,96.5,101.3,96.8,100.1z"/>
		<path fill="#FFF0D3" d="M104.4,105V92.7h-4.6v-1.6h11v1.6h-4.6V105H104.4z"/>
		<path fill="#FFF0D3" d="M121.9,91.1h1.8v8c0,1.4-0.2,2.5-0.5,3.3c-0.3,0.8-0.9,1.5-1.7,2c-0.8,0.5-1.9,0.8-3.3,0.8
			c-1.3,0-2.4-0.2-3.2-0.7s-1.4-1.1-1.8-2c-0.4-0.8-0.5-2-0.5-3.5v-8h1.8v8c0,1.2,0.1,2.1,0.3,2.7c0.2,0.6,0.6,1,1.2,1.3
			c0.5,0.3,1.2,0.5,2,0.5c1.4,0,2.3-0.3,2.9-0.9c0.6-0.6,0.9-1.8,0.9-3.5V91.1z"/>
		<path fill="#FFF0D3" d="M126.8,105V91.1h6.2c1.2,0,2.2,0.1,2.8,0.4s1.2,0.7,1.5,1.3c0.4,0.6,0.6,1.3,0.6,2.1c0,1-0.3,1.8-1,2.5
			s-1.6,1.1-3,1.3c0.5,0.2,0.9,0.5,1.1,0.7c0.5,0.5,1,1.1,1.5,1.9l2.4,3.8h-2.3l-1.8-2.9c-0.5-0.8-1-1.5-1.3-1.9
			c-0.3-0.4-0.7-0.8-0.9-0.9c-0.3-0.2-0.6-0.3-0.8-0.4c-0.2,0-0.6-0.1-1-0.1h-2.1v6.2H126.8z M128.7,97.2h4c0.8,0,1.5-0.1,2-0.3
			c0.5-0.2,0.8-0.5,1.1-0.8c0.2-0.4,0.4-0.8,0.4-1.2c0-0.7-0.2-1.2-0.7-1.6c-0.5-0.4-1.2-0.6-2.3-0.6h-4.4V97.2z"/>
		<path fill="#FFF0D3" d="M139.3,105l5.3-13.9h2l5.7,13.9h-2.1l-1.6-4.2h-5.8l-1.5,4.2H139.3z M143.3,99.3h4.7l-1.5-3.9
			c-0.4-1.2-0.8-2.1-1-2.9c-0.2,0.9-0.4,1.8-0.8,2.7L143.3,99.3z"/>
		<path fill="#FFF0D3" d="M153.7,105V91.1h1.8v12.3h6.9v1.6H153.7z"/>
		<path fill="#FFF0D3" d="M176.5,99.5v-1.6l5.9,0v5.2c-0.9,0.7-1.8,1.3-2.8,1.6s-1.9,0.5-3,0.5c-1.4,0-2.6-0.3-3.7-0.9
			c-1.1-0.6-2-1.4-2.5-2.5c-0.6-1.1-0.9-2.3-0.9-3.7c0-1.4,0.3-2.6,0.8-3.8s1.4-2,2.4-2.6c1.1-0.6,2.3-0.9,3.7-0.9
			c1,0,1.9,0.2,2.7,0.5c0.8,0.3,1.5,0.8,1.9,1.4c0.5,0.6,0.8,1.3,1.1,2.3l-1.7,0.5c-0.2-0.7-0.5-1.3-0.8-1.7c-0.3-0.4-0.8-0.7-1.3-1
			c-0.6-0.2-1.2-0.4-1.9-0.4c-0.8,0-1.6,0.1-2.2,0.4s-1.1,0.6-1.5,1c-0.4,0.4-0.7,0.9-0.9,1.4c-0.4,0.9-0.5,1.8-0.5,2.8
			c0,1.2,0.2,2.3,0.6,3.1c0.4,0.8,1,1.5,1.9,1.9c0.8,0.4,1.7,0.6,2.6,0.6c0.8,0,1.6-0.2,2.3-0.5s1.3-0.6,1.7-1v-2.6H176.5z"/>
		<path fill="#FFF0D3" d="M185.2,105V91.1h6.2c1.2,0,2.2,0.1,2.8,0.4s1.2,0.7,1.5,1.3c0.4,0.6,0.6,1.3,0.6,2.1c0,1-0.3,1.8-1,2.5
			s-1.6,1.1-3,1.3c0.5,0.2,0.9,0.5,1.1,0.7c0.5,0.5,1,1.1,1.5,1.9l2.4,3.8h-2.3l-1.8-2.9c-0.5-0.8-1-1.5-1.3-1.9
			c-0.3-0.4-0.7-0.8-0.9-0.9c-0.3-0.2-0.6-0.3-0.8-0.4c-0.2,0-0.6-0.1-1-0.1H187v6.2H185.2z M187,97.2h4c0.8,0,1.5-0.1,2-0.3
			c0.5-0.2,0.8-0.5,1.1-0.8c0.2-0.4,0.4-0.8,0.4-1.2c0-0.7-0.2-1.2-0.7-1.6c-0.5-0.4-1.2-0.6-2.3-0.6H187V97.2z"/>
		<path fill="#FFF0D3" d="M197.6,105l5.3-13.9h2l5.7,13.9h-2.1l-1.6-4.2h-5.8l-1.5,4.2H197.6z M201.7,99.3h4.7l-1.5-3.9
			c-0.4-1.2-0.8-2.1-1-2.9c-0.2,0.9-0.4,1.8-0.8,2.7L201.7,99.3z"/>
		<path fill="#FFF0D3" d="M212.1,105V91.1h5.2c0.9,0,1.6,0,2.1,0.1c0.7,0.1,1.3,0.3,1.7,0.7c0.5,0.3,0.8,0.8,1.1,1.3
			s0.4,1.2,0.4,1.9c0,1.2-0.4,2.2-1.1,3c-0.8,0.8-2.1,1.2-4.1,1.2H214v5.7H212.1z M214,97.7h3.6c1.2,0,2-0.2,2.5-0.7
			s0.8-1.1,0.8-1.9c0-0.6-0.1-1.1-0.4-1.5s-0.7-0.7-1.2-0.8c-0.3-0.1-0.9-0.1-1.7-0.1H214V97.7z"/>
		<path fill="#FFF0D3" d="M225.2,105V91.1h1.8v5.7h7.2v-5.7h1.8V105h-1.8v-6.6H227v6.6H225.2z"/>
		<path fill="#FFF0D3" d="M239.5,105V91.1h1.8V105H239.5z"/>
		<path fill="#FFF0D3" d="M254.5,100.1l1.8,0.5c-0.4,1.5-1.1,2.7-2.1,3.5c-1,0.8-2.2,1.2-3.7,1.2c-1.5,0-2.7-0.3-3.7-0.9
			c-0.9-0.6-1.7-1.5-2.1-2.7c-0.5-1.2-0.7-2.4-0.7-3.7c0-1.4,0.3-2.7,0.8-3.8c0.6-1.1,1.3-1.9,2.4-2.5s2.1-0.8,3.4-0.8
			c1.4,0,2.6,0.4,3.5,1.1c0.9,0.7,1.6,1.7,2,3l-1.8,0.4c-0.3-1-0.8-1.8-1.4-2.2c-0.6-0.5-1.4-0.7-2.3-0.7c-1.1,0-2,0.3-2.7,0.8
			c-0.7,0.5-1.2,1.2-1.5,2.1c-0.3,0.9-0.4,1.8-0.4,2.7c0,1.2,0.2,2.2,0.5,3.1c0.3,0.9,0.9,1.5,1.6,2c0.7,0.4,1.5,0.7,2.4,0.7
			c1,0,1.9-0.3,2.6-0.9C253.7,102.2,254.2,101.3,254.5,100.1z"/>
		<path fill="#FFF0D3" d="M258,100.5l1.7-0.2c0.1,0.7,0.3,1.3,0.6,1.7c0.3,0.4,0.8,0.8,1.4,1.1s1.3,0.4,2.1,0.4
			c0.7,0,1.3-0.1,1.9-0.3s0.9-0.5,1.2-0.9c0.3-0.4,0.4-0.8,0.4-1.2c0-0.4-0.1-0.8-0.4-1.1s-0.7-0.6-1.3-0.8
			c-0.4-0.1-1.2-0.4-2.5-0.7s-2.2-0.6-2.7-0.9c-0.7-0.3-1.2-0.8-1.5-1.3s-0.5-1.1-0.5-1.7c0-0.7,0.2-1.4,0.6-2s1-1.1,1.7-1.4
			s1.6-0.5,2.6-0.5c1,0,1.9,0.2,2.7,0.5s1.4,0.8,1.8,1.5c0.4,0.6,0.7,1.4,0.7,2.2l-1.8,0.1c-0.1-0.9-0.4-1.5-1-2
			c-0.5-0.4-1.4-0.7-2.4-0.7c-1.1,0-1.9,0.2-2.4,0.6c-0.5,0.4-0.8,0.9-0.8,1.5c0,0.5,0.2,0.9,0.5,1.2c0.4,0.3,1.3,0.7,2.8,1
			c1.5,0.3,2.5,0.6,3.1,0.9c0.8,0.4,1.4,0.8,1.8,1.4c0.4,0.6,0.6,1.2,0.6,2c0,0.7-0.2,1.4-0.6,2.1c-0.4,0.7-1,1.2-1.8,1.5
			c-0.8,0.4-1.7,0.5-2.7,0.5c-1.3,0-2.3-0.2-3.2-0.6c-0.9-0.4-1.5-0.9-2-1.7C258.2,102.3,258,101.4,258,100.5z"/>
		<path fill="#FFF0D3" d="M280.3,102.7v-3.8h-3.8v-1.6h3.8v-3.8h1.6v3.8h3.8v1.6h-3.8v3.8H280.3z"/>
		<path fill="#FFF0D3" d="M294,105V91.1h1.8V105H294z"/>
		<path fill="#FFF0D3" d="M299,105V91.1h1.8v12.3h6.9v1.6H299z"/>
		<path fill="#FFF0D3" d="M309.8,105V91.1h1.8v12.3h6.9v1.6H309.8z"/>
		<path fill="#FFF0D3" d="M329.9,91.1h1.8v8c0,1.4-0.2,2.5-0.5,3.3s-0.9,1.5-1.7,2c-0.8,0.5-1.9,0.8-3.3,0.8c-1.3,0-2.4-0.2-3.2-0.7
			s-1.4-1.1-1.8-2c-0.4-0.8-0.5-2-0.5-3.5v-8h1.8v8c0,1.2,0.1,2.1,0.3,2.7c0.2,0.6,0.6,1,1.2,1.3c0.5,0.3,1.2,0.5,2,0.5
			c1.4,0,2.3-0.3,2.9-0.9c0.6-0.6,0.9-1.8,0.9-3.5V91.1z"/>
		<path fill="#FFF0D3" d="M334.1,100.5l1.7-0.2c0.1,0.7,0.3,1.3,0.6,1.7c0.3,0.4,0.8,0.8,1.4,1.1s1.3,0.4,2.1,0.4
			c0.7,0,1.3-0.1,1.9-0.3s0.9-0.5,1.2-0.9c0.3-0.4,0.4-0.8,0.4-1.2c0-0.4-0.1-0.8-0.4-1.1c-0.3-0.3-0.7-0.6-1.3-0.8
			c-0.4-0.1-1.2-0.4-2.5-0.7s-2.2-0.6-2.7-0.9c-0.7-0.3-1.2-0.8-1.5-1.3s-0.5-1.1-0.5-1.7c0-0.7,0.2-1.4,0.6-2s1-1.1,1.7-1.4
			c0.8-0.3,1.6-0.5,2.6-0.5c1,0,1.9,0.2,2.7,0.5s1.4,0.8,1.8,1.5c0.4,0.6,0.7,1.4,0.7,2.2l-1.8,0.1c-0.1-0.9-0.4-1.5-1-2
			c-0.5-0.4-1.4-0.7-2.4-0.7c-1.1,0-1.9,0.2-2.4,0.6c-0.5,0.4-0.8,0.9-0.8,1.5c0,0.5,0.2,0.9,0.5,1.2c0.4,0.3,1.3,0.7,2.8,1
			c1.5,0.3,2.5,0.6,3.1,0.9c0.8,0.4,1.4,0.8,1.8,1.4c0.4,0.6,0.6,1.2,0.6,2c0,0.7-0.2,1.4-0.6,2.1c-0.4,0.7-1,1.2-1.8,1.5
			c-0.8,0.4-1.7,0.5-2.7,0.5c-1.3,0-2.3-0.2-3.2-0.6c-0.9-0.4-1.5-0.9-2-1.7C334.4,102.3,334.2,101.4,334.1,100.5z"/>
		<path fill="#FFF0D3" d="M351.3,105V92.7h-4.6v-1.6h11v1.6h-4.6V105H351.3z"/>
		<path fill="#FFF0D3" d="M359.6,105V91.1h6.2c1.2,0,2.2,0.1,2.8,0.4s1.2,0.7,1.5,1.3c0.4,0.6,0.6,1.3,0.6,2.1c0,1-0.3,1.8-1,2.5
			c-0.6,0.7-1.6,1.1-3,1.3c0.5,0.2,0.9,0.5,1.1,0.7c0.5,0.5,1,1.1,1.5,1.9l2.4,3.8h-2.3l-1.8-2.9c-0.5-0.8-1-1.5-1.3-1.9
			c-0.3-0.4-0.7-0.8-0.9-0.9c-0.3-0.2-0.6-0.3-0.8-0.4c-0.2,0-0.6-0.1-1-0.1h-2.1v6.2H359.6z M361.5,97.2h4c0.8,0,1.5-0.1,2-0.3
			c0.5-0.2,0.8-0.5,1.1-0.8c0.2-0.4,0.4-0.8,0.4-1.2c0-0.7-0.2-1.2-0.7-1.6c-0.5-0.4-1.2-0.6-2.3-0.6h-4.4V97.2z"/>
		<path fill="#FFF0D3" d="M372.1,105l5.3-13.9h2l5.7,13.9H383l-1.6-4.2h-5.8l-1.5,4.2H372.1z M376.1,99.3h4.7l-1.5-3.9
			c-0.4-1.2-0.8-2.1-1-2.9c-0.2,0.9-0.4,1.8-0.8,2.7L376.1,99.3z"/>
		<path fill="#FFF0D3" d="M390.2,105V92.7h-4.6v-1.6h11v1.6H392V105H390.2z"/>
		<path fill="#FFF0D3" d="M398.8,105V91.1h1.8V105H398.8z"/>
		<path fill="#FFF0D3" d="M403.3,98.2c0-2.3,0.6-4.1,1.9-5.4c1.2-1.3,2.8-2,4.8-2c1.3,0,2.4,0.3,3.5,0.9c1,0.6,1.8,1.5,2.4,2.6
			c0.5,1.1,0.8,2.3,0.8,3.7c0,1.4-0.3,2.7-0.9,3.8c-0.6,1.1-1.4,2-2.4,2.5c-1,0.6-2.2,0.9-3.4,0.9c-1.3,0-2.5-0.3-3.5-0.9
			c-1-0.6-1.8-1.5-2.3-2.6C403.6,100.6,403.3,99.4,403.3,98.2z M405.2,98.2c0,1.7,0.5,3,1.4,4c0.9,1,2,1.4,3.4,1.4
			c1.4,0,2.5-0.5,3.4-1.5s1.3-2.4,1.3-4.1c0-1.1-0.2-2.1-0.6-3c-0.4-0.8-0.9-1.5-1.7-2s-1.6-0.7-2.5-0.7c-1.3,0-2.4,0.4-3.4,1.3
			C405.7,94.6,405.2,96.1,405.2,98.2z"/>
		<path fill="#FFF0D3" d="M419,105V91.1h1.9l7.3,10.9V91.1h1.8V105h-1.9L420.8,94V105H419z"/>
		<path fill="#FFF0D3" d="M432.4,100.5l1.7-0.2c0.1,0.7,0.3,1.3,0.6,1.7c0.3,0.4,0.8,0.8,1.4,1.1s1.3,0.4,2.1,0.4
			c0.7,0,1.3-0.1,1.9-0.3s0.9-0.5,1.2-0.9c0.3-0.4,0.4-0.8,0.4-1.2c0-0.4-0.1-0.8-0.4-1.1c-0.3-0.3-0.7-0.6-1.3-0.8
			c-0.4-0.1-1.2-0.4-2.5-0.7s-2.2-0.6-2.7-0.9c-0.7-0.3-1.2-0.8-1.5-1.3s-0.5-1.1-0.5-1.7c0-0.7,0.2-1.4,0.6-2s1-1.1,1.7-1.4
			c0.8-0.3,1.6-0.5,2.6-0.5c1,0,1.9,0.2,2.7,0.5s1.4,0.8,1.8,1.5c0.4,0.6,0.7,1.4,0.7,2.2l-1.8,0.1c-0.1-0.9-0.4-1.5-1-2
			c-0.5-0.4-1.4-0.7-2.4-0.7c-1.1,0-1.9,0.2-2.4,0.6c-0.5,0.4-0.8,0.9-0.8,1.5c0,0.5,0.2,0.9,0.5,1.2c0.4,0.3,1.3,0.7,2.8,1
			c1.5,0.3,2.5,0.6,3.1,0.9c0.8,0.4,1.4,0.8,1.8,1.4c0.4,0.6,0.6,1.2,0.6,2c0,0.7-0.2,1.4-0.6,2.1c-0.4,0.7-1,1.2-1.8,1.5
			c-0.8,0.4-1.7,0.5-2.7,0.5c-1.3,0-2.3-0.2-3.2-0.6c-0.9-0.4-1.5-0.9-2-1.7C432.7,102.3,432.5,101.4,432.4,100.5z"/>
	</g>
</g>
<g>
</g>
<g>
</g>
<g>
</g>
<g>
</g>
<g>
</g>
<g>
</g>
<g>
</g>
<g>
</g>
<g>
</g>
<g>
</g>
<g>
</g>
<g>
</g>
<g>
</g>
<g>
</g>
<g>
</g>
</svg>
