<?xml version="1.0" encoding="utf-8"?>
<!-- Generator: Adobe Illustrator 18.1.0, SVG Export Plug-In . SVG Version: 6.00 Build 0)  -->
<!DOCTYPE svg PUBLIC "-//W3C//DTD SVG 1.1//EN" "http://www.w3.org/Graphics/SVG/1.1/DTD/svg11.dtd">
<svg version="1.1" id="Layer_1" xmlns="http://www.w3.org/2000/svg" xmlns:xlink="http://www.w3.org/1999/xlink" x="0px" y="0px"
	 viewBox="-10.8 162 978.5 186.9" enable-background="new -10.8 162 978.5 186.9" xml:space="preserve">
<g>
	<g>
		<path fill="#DF1F26" d="M0.9,167h51l66.5,97.9V167h51.4v176.7h-51.4l-66.3-96.8v97.1H0.9V167z"/>
		<path fill="#DF1F26" d="M179.5,255.7c0-28.8,8-51.2,24.1-67.4s38.5-24.1,67.1-24.1c29.5,0,52.1,8,68,23.7
			c15.9,15.7,23.9,37.9,23.9,66.3c0,20.7-3.4,37.7-10.3,50.8c-6.9,13.1-17,23.5-30.1,30.8c-13.1,7.3-29.5,11-49.1,11
			c-20,0-36.4-3.2-49.5-9.5c-13.1-6.2-23.7-16.4-31.8-30.1C183.6,293.3,179.5,276.1,179.5,255.7z M234.1,255.9
			c0,17.9,3.2,30.6,9.9,38.5c6.7,7.7,15.7,11.6,27.1,11.6c11.8,0,20.9-3.9,27.3-11.4c6.5-7.5,9.7-21.3,9.7-41.1
			c0-16.6-3.4-28.8-10.1-36.4c-6.7-7.7-15.7-11.4-27.3-11.4c-11,0-19.8,3.9-26.5,11.6C237.4,224.9,234.1,237.8,234.1,255.9z"/>
		<path fill="#DF1F26" d="M372.9,343.7V167h91c16.8,0,29.7,1.5,38.7,4.3c8.8,2.8,16.1,8.2,21.5,16.1c5.4,7.7,8.2,17.4,8.2,28.6
			c0,9.9-2.2,18.3-6.2,25.4s-9.9,12.9-17.2,17.2c-4.7,2.8-11,5.2-19.2,6.9c6.5,2.2,11.2,4.3,14.2,6.5c1.9,1.5,4.9,4.5,8.8,9.3
			c3.9,4.7,6.5,8.4,7.7,11l26.5,51.2h-61.8l-29.3-54c-3.7-6.9-6.9-11.6-9.9-13.6c-3.9-2.8-8.4-4.1-13.3-4.1H428v71.7h-55.1V343.7z
			 M427.8,238.7h23c2.6,0,7.3-0.9,14.4-2.4c3.7-0.6,6.7-2.6,8.8-5.6c2.4-3,3.4-6.5,3.4-10.3c0-5.8-1.7-10.1-5.4-13.1
			c-3.7-3-10.3-4.5-20.4-4.5h-23.9V238.7z"/>
		<path fill="#DF1F26" d="M543.8,167h71.9l27.8,107.6L671,167h71.7v176.7h-44.8V209l-34.4,134.7H623L588.6,209v134.7h-44.8V167z"/>
	</g>
	<g>
		<path fill="#454545" d="M751.9,167h54.7v133.2h85.2v43.5H751.9V167z"/>
		<path fill="#454545" d="M901.5,167h54.7v176.7h-54.7V167z"/>
	</g>
</g>
</svg>
