<?xml version="1.0" encoding="utf-8"?>
<!-- Generator: Adobe Illustrator 18.1.0, SVG Export Plug-In . SVG Version: 6.00 Build 0)  -->
<!DOCTYPE svg PUBLIC "-//W3C//DTD SVG 1.1//EN" "http://www.w3.org/Graphics/SVG/1.1/DTD/svg11.dtd">
<svg version="1.1" id="Capa_1" xmlns="http://www.w3.org/2000/svg" xmlns:xlink="http://www.w3.org/1999/xlink" x="0px" y="0px"
	 width="31.2px" height="31.2px" viewBox="-300.2 265 31.2 31.2" enable-background="new -300.2 265 31.2 31.2"
	 xml:space="preserve">
<g>
	<path fill="#FFF0D4" d="M-277.8,270.8c-3.3-3.6-8.8-3.3-12.5-0.6c-3.1,2.3-5.3,7.5-2.7,11.1c0.5,0.7,1.3,1.2,2.2,1.3
		c0.2,0,0.4-0.1,0.5-0.3c0.2-0.5,0.4-0.9,0.4-1.4c0-0.2-0.1-0.3-0.3-0.3c-2.4-2.6-0.8-5.9,1.6-7.9c2.1-1.8,5.8-3.5,8.3-1.4
		c1.7,1.4,1.8,4.1,1.7,6.1c-0.1,2.5-1,5.2-3.6,6c-0.9,0.3-1.9,0.2-2.4-0.6c-0.6-0.9-0.4-1.9-0.2-2.8c0.4-1.5,1.3-3.5,0.4-4.9
		c-1-1.7-3.1-0.2-3.7,1c-0.4,0.7-1,3-0.1,3.6c-1,2.6-1.7,5.4-2.2,8.2c-0.2,1.2-0.4,2.6-0.2,3.8c0,0.1,0.3,1,0.5,1.4
		c0,0.2,0.3,0.3,0.4,0.1c0.9-1.3,1.9-2.5,2.4-4c0.3-0.8,0.4-1.7,0.5-2.5c0.1-0.6,0.4-1.2,0.4-1.9c0,0,0,0,0,0
		c0.8,0.6,1.9,1.2,2.9,1.3c1.5,0.3,3.3-0.3,4.5-1.1c0.2-0.1,0.4-0.3,0.6-0.5c0.6-0.4,1.1-0.9,1.5-1.5
		C-274,279.4-274.9,273.9-277.8,270.8z M-290.7,281.2C-290.7,281.2-290.7,281.3-290.7,281.2c0.1,0.1,0,0.1,0,0.1
		C-290.7,281.3-290.8,281.3-290.7,281.2C-290.8,281.2-290.8,281.2-290.7,281.2C-290.8,281.2-290.8,281.2-290.7,281.2z M-292.3,274.1
		c-0.2,0.4-0.4,0.8-0.6,1.3C-292.8,274.9-292.6,274.4-292.3,274.1C-292.4,274-292.3,274-292.3,274.1
		C-292.3,274.1-292.3,274.1-292.3,274.1z M-277.7,272.3c0,0-0.1-0.1-0.1-0.1c0,0,0,0,0,0c0-0.1,0-0.1-0.1-0.2
		c0.1,0.2,0.3,0.4,0.4,0.6C-277.6,272.5-277.7,272.4-277.7,272.3z"/>
</g>
</svg>
