<?xml version="1.0" encoding="utf-8"?>
<!-- Generator: Adobe Illustrator 18.1.0, SVG Export Plug-In . SVG Version: 6.00 Build 0)  -->
<!DOCTYPE svg PUBLIC "-//W3C//DTD SVG 1.1//EN" "http://www.w3.org/Graphics/SVG/1.1/DTD/svg11.dtd">
<svg version="1.1" id="Capa_1" xmlns="http://www.w3.org/2000/svg" xmlns:xlink="http://www.w3.org/1999/xlink" x="0px" y="0px"
	 width="38.8px" height="40px" viewBox="460.6 260 38.8 40" enable-background="new 460.6 260 38.8 40" xml:space="preserve">
<g>
	<g>
		<path fill="#FFFFFF" d="M486,284.9c2-2.2,3.3-5.2,3.3-8.4c0-6.8-5.6-12.4-12.4-12.4s-12.4,5.6-12.4,12.4c0,6.8,5.6,12.4,12.4,12.4
			c2.8,0,5.4-0.9,7.4-2.5l9.2,9.2c0.2,0.2,0.5,0.3,0.8,0.3s0.6-0.1,0.8-0.3c0.4-0.4,0.4-1.1,0-1.6L486,284.9z M466.8,276.5
			c0-5.6,4.6-10.2,10.2-10.2c5.6,0,10.2,4.6,10.2,10.2c0,5.6-4.6,10.2-10.2,10.2S466.8,282.1,466.8,276.5z"/>
	</g>
</g>
</svg>
