<?xml version="1.0" encoding="utf-8"?>
<!-- Generator: Adobe Illustrator 18.1.0, SVG Export Plug-In . SVG Version: 6.00 Build 0)  -->
<!DOCTYPE svg PUBLIC "-//W3C//DTD SVG 1.1//EN" "http://www.w3.org/Graphics/SVG/1.1/DTD/svg11.dtd">
<svg version="1.1" id="Capa_1" xmlns="http://www.w3.org/2000/svg" xmlns:xlink="http://www.w3.org/1999/xlink" x="0px" y="0px"
	 width="28px" height="37.6px" viewBox="-403 262.2 28 37.6" enable-background="new -403 262.2 28 37.6" xml:space="preserve">
<g>
	<path id="Twitter" fill="#FFF0D4" d="M-382.8,287.2h-6.2c-0.9,0-1.6-0.3-2.2-0.9c-0.6-0.6-0.9-1.3-0.9-2.2V282h8.8
		c0.8,0,1.5-0.3,2-0.9c0.6-0.6,0.9-1.3,0.9-2c0-0.8-0.3-1.5-0.9-2c-0.6-0.6-1.3-0.9-2.1-0.9h-8.8v-4.5c0-0.9-0.3-1.6-0.9-2.2
		c-0.6-0.6-1.3-0.9-2.2-0.9c-0.9,0-1.6,0.3-2.2,0.9c-0.6,0.6-0.9,1.3-0.9,2.2v12.5c0,2.6,0.9,4.8,2.7,6.6c1.8,1.8,4,2.7,6.6,2.7h6.2
		c0.9,0,1.6-0.3,2.2-0.9c0.6-0.6,0.9-1.3,0.9-2.2c0-0.9-0.3-1.6-0.9-2.2C-381.2,287.6-382,287.2-382.8,287.2z"/>
</g>
</svg>
