<?xml version="1.0" encoding="utf-8"?>
<!-- Generator: Adobe Illustrator 18.1.0, SVG Export Plug-In . SVG Version: 6.00 Build 0)  -->
<!DOCTYPE svg PUBLIC "-//W3C//DTD SVG 1.1//EN" "http://www.w3.org/Graphics/SVG/1.1/DTD/svg11.dtd">
<svg version="1.1" id="Capa_1" xmlns="http://www.w3.org/2000/svg" xmlns:xlink="http://www.w3.org/1999/xlink" x="0px" y="0px"
	 width="32px" height="43px" viewBox="-405 259.5 32 43" enable-background="new -405 259.5 32 43" xml:space="preserve">
<g>
	<path id="Twitter" fill="#FFF0D4" d="M-380.3,289.7h-8.6c-1.2,0-2.2-0.4-3.1-1.3c-0.8-0.8-1.3-1.9-1.3-3.1v-3.1h12.3
		c1.1,0,2.1-0.4,2.9-1.2c0.8-0.8,1.2-1.8,1.2-2.9c0-1.1-0.4-2.1-1.2-2.9c-0.8-0.8-1.8-1.2-2.9-1.2h-12.3v-6.4c0-1.2-0.4-2.2-1.3-3.1
		c-0.8-0.9-1.9-1.3-3.1-1.3c-1.2,0-2.3,0.4-3.1,1.3c-0.9,0.8-1.3,1.9-1.3,3.1v17.5c0,3.6,1.3,6.7,3.8,9.2c2.6,2.6,5.6,3.8,9.2,3.8
		h8.6c1.2,0,2.2-0.4,3.1-1.3c0.9-0.9,1.3-1.9,1.3-3.1c0-1.2-0.4-2.2-1.3-3.1C-378.1,290.2-379.1,289.7-380.3,289.7z"/>
</g>
</svg>
