<?xml version="1.0" encoding="utf-8"?>
<!-- Generator: Adobe Illustrator 18.1.0, SVG Export Plug-In . SVG Version: 6.00 Build 0)  -->
<!DOCTYPE svg PUBLIC "-//W3C//DTD SVG 1.1//EN" "http://www.w3.org/Graphics/SVG/1.1/DTD/svg11.dtd">
<svg version="1.1" id="Capa_1" xmlns="http://www.w3.org/2000/svg" xmlns:xlink="http://www.w3.org/1999/xlink" x="0px" y="0px"
	 width="38px" height="30.6px" viewBox="461 264.7 38 30.6" enable-background="new 461 264.7 38 30.6" xml:space="preserve">
<g>
	<path fill="#FFF0D4" d="M491,267.5c3,0.1,4.5,1.8,4.5,5.1c0,0.2,0,0.4,0,0.7c-0.1,2.8-2.2,6.7-6.3,11.5c-4.2,5.1-7.8,7.7-10.7,7.7
		c-1.8,0-3.3-1.6-4.6-4.7l-1.3-4.3l-1.3-4.3c-0.9-3.1-1.9-4.6-3-4.6c-0.2,0-1,0.5-2.4,1.4l-1.5-1.7l2.3-1.9l2.2-1.9
		c2-1.6,3.5-2.5,4.6-2.6c0.1,0,0.3,0,0.4,0c2.2,0,3.5,1.5,4,4.6c0.3,1.8,0.5,3.2,0.7,4.3c0.2,1.1,0.4,1.9,0.5,2.3
		c0.7,2.9,1.5,4.4,2.3,4.4c0.6,0,1.6-1,2.9-2.9c1.3-2,2-3.4,2.1-4.4c0-0.2,0-0.4,0-0.5c0-1.3-0.7-1.9-2.1-1.9
		c-0.7,0-1.5,0.2-2.3,0.4c1.5-4.5,4.3-6.7,8.4-6.8C490.8,267.5,490.9,267.5,491,267.5z"/>
</g>
</svg>
